<svg viewBox="0 0 24 24" fill="none" stroke="#fff" stroke-width="2" stroke-linecap="round" stroke-linejoin="round"><path d="M10 5.172C10 3.782 8.423 2.679 6.5 3c-2.823.47-4.113 6.006-4 7 .137 1.217 1.5 2 2.5 2s2-.5 3-1.5c.5-.5 1-1 1.5-1.5"/><path d="M14.267 5.172c0-1.39 1.577-2.493 3.5-2.172 2.823.47 4.113 6.006 4 7-.137 1.217-1.5 2-2.5 2s-2-.5-3-1.5c-.5-.5-1-1-1.5-1.5"/><path d="M8 14v.5M16 14v.5"/><path d="M11.25 16.25h1.5L12 17l-.75-.75z"/><path d="M4.42 11.247A13.152 13.152 0 0 0 4 14.556C4 18.728 7.582 21 12 21s8-2.272 8-6.444a13.152 13.152 0 0 0-.42-3.31"/></svg>
